# xmcd CD database file
#
# Track frame offsets:
#	150
#	13324
#	31115
#	46626
#	63696
#	79921
#	94556
#	119643
#	133646
#	148563
#	162424
#	178968
#	196984
#
# Disc length: 2835 seconds
#
# Revision: 2
# Processed by: cddbd v1.5.2PL0 Copyright (c) Steve Scherf et al.
# Submitted via: CDex 1.70beta2
#
DISCID=b50b110d
DTITLE=Ulf "M" Andersson - Wanted
DYEAR=2010
DGENRE=Country
TTITLE0=Whiskey under the bridge
TTITLE1=Wrapped
TTITLE2=Same kind of crazy
TTITLE3=Ready for the end of the world
TTITLE4=Adalida
TTITLE5=Dumaflache
TTITLE6='til I gain control again
TTITLE7=Daddy's Money
TTITLE8=These boots are made for walking
TTITLE9=Don't want to love you
TTITLE10=Big Time
TTITLE11=I never go around mirrors
TTITLE12=The more I drink
EXTD=YEAR: 2010
EXTT0=
EXTT1=
EXTT2=
EXTT3=
EXTT4=
EXTT5=
EXTT6=
EXTT7=
EXTT8=
EXTT9=
EXTT10=
EXTT11=
EXTT12=
PLAYORDER=
